<?xml version="1.0" encoding="UTF-8"?>
<svg width="27px" height="38px" viewBox="0 0 27 38" version="1.1" xmlns="http://www.w3.org/2000/svg" xmlns:xlink="http://www.w3.org/1999/xlink">
    <!-- Generator: Sketch 50.2 (55047) - http://www.bohemiancoding.com/sketch -->
    <title>Notification</title>
    <desc>Created with Sketch.</desc>
    <defs></defs>
    <g id="Page-1" stroke="none" stroke-width="1" fill="none" fill-rule="evenodd">
        <g id="Main-Dashboard" transform="translate(-1481.000000, -22.000000)">
            <g id="Main-Screen">
                <g id="Notification" transform="translate(1481.000000, 22.843902)">
                    <g id="notification" transform="translate(0.000000, 8.535084)" fill="#000000" fill-rule="nonzero">
                        <path d="M10.9285714,28.4502814 C12.3428571,28.4502814 13.5,27.1700188 13.5,25.6052533 L8.35714286,25.6052533 C8.35714286,27.1700188 9.51428571,28.4502814 10.9285714,28.4502814 Z M19.2857143,19.915197 L19.2857143,12.0913696 C19.2857143,7.72425141 16.5471429,4.06839024 12.8571429,3.10108068 L12.8571429,2.13377111 C12.8571429,0.953084428 11.9957143,0 10.9285714,0 C9.86142857,0 9,0.953084428 9,2.13377111 L9,3.10108068 C5.31,4.06839024 2.57142857,7.72425141 2.57142857,12.0913696 L2.57142857,19.915197 L0,22.7602251 L0,24.1827392 L21.8571429,24.1827392 L21.8571429,22.7602251 L19.2857143,19.915197 Z M16.7142857,21.3377111 L5.14285714,21.3377111 L5.14285714,12.0913696 C5.14285714,8.54930957 7.72714286,5.69005629 10.9285714,5.69005629 C14.13,5.69005629 16.7142857,8.54930957 16.7142857,12.0913696 L16.7142857,21.3377111 Z" id="Shape"></path>
                    </g>
                    <ellipse id="Oval-3" fill="#FF8A8A" cx="21.8571429" cy="5.69005629" rx="5.14285714" ry="5.69005629"></ellipse>
                </g>
            </g>
        </g>
    </g>
</svg>